<svg width="32" height="34" viewBox="0 0 32 34" fill="none" xmlns="http://www.w3.org/2000/svg">
<path d="M31.4341 8.95473L16.3595 0.151964C16.1017 0.00161451 15.7955 -0.039173 15.508 0.038555C15.2205 0.116283 14.9753 0.306175 14.8262 0.566546L0.150286 26.2649C0.00159678 26.5256 -0.0387405 26.8352 0.0381292 27.1259C0.114999 27.4166 0.302794 27.6645 0.560289 27.8154L10.9452 33.8807V34H31.1645V31.7283H19.7293L31.8497 10.5051C31.9984 10.2445 32.0387 9.93486 31.9619 9.64418C31.885 9.3535 31.6972 9.10554 31.4397 8.95473H31.4341ZM11.7483 31.7283L2.65524 26.4183L6.30595 20.0235L19.4373 27.6904L17.1233 31.7283H11.7483ZM20.5606 25.7254L7.42925 18.0585L16.2078 2.68489L29.3391 10.3518L20.5606 25.7254Z" fill="#C8A6B8"/>
</svg>
