<svg width="41" height="29" viewBox="0 0 41 29" fill="none" xmlns="http://www.w3.org/2000/svg">
<path d="M12.0087 3.31328C13.4894 1.8326 15.4976 1.00077 17.5916 1.00077C19.6856 1.00077 21.6938 1.8326 23.1745 3.31328L24.6958 4.83458L26.2171 3.31328C26.9502 2.5799 27.8205 1.99814 28.7784 1.60122C29.7364 1.2043 30.7631 1 31.8 1C32.8369 1 33.8637 1.2043 34.8216 1.60122C35.7795 1.99814 36.6499 2.5799 37.3829 3.31328C38.1163 4.04631 38.6981 4.91666 39.095 5.87459C39.4919 6.83252 39.6962 7.85927 39.6962 8.89618C39.6962 9.93309 39.4919 10.9598 39.095 11.9178C38.6981 12.8757 38.1163 13.746 37.3829 14.4791L35.8616 16.0004L24.6958 27.1662L20.1963 22.6666M12.0087 3.31328C10.528 4.79396 9.6962 6.80219 9.6962 8.89618C9.6962 10.9902 10.528 12.9984 12.0087 14.4791L13.53 16.0004L20.1963 22.6666M12.0087 3.31328C9.40455 0.875521 3.11957 1.04904e-05 1.19651 6.50001C-0.726563 13 12.0085 23.5 15.6962 27.1662L20.1963 22.6666" stroke="#C8A6B8" stroke-width="2" stroke-linecap="round" stroke-linejoin="round"/>
</svg>
