<svg width="117" height="76" viewBox="0 0 117 76" fill="none" xmlns="http://www.w3.org/2000/svg">
<g filter="url(#filter0_di)">
<path fill-rule="evenodd" clip-rule="evenodd" d="M90.528 58.8315C89.3239 58.8315 88.1428 58.7329 86.9924 58.5433C83.1084 64.2513 76.5594 68 69.1348 68C63.011 68 57.4828 65.4497 53.5543 61.3533C50.1378 63.6221 46.0379 64.9438 41.6293 64.9438C34.3028 64.9438 27.8289 61.2936 23.9271 55.7125C12.7807 54.8662 4 45.554 4 34.1909C4 22.2702 13.6636 12.6066 25.5843 12.6066C26.2911 12.6066 26.99 12.6406 27.6794 12.707C31.0645 5.21416 38.603 0 47.3594 0C53.8851 0 59.7344 2.89597 63.6923 7.47285C65.3155 7.08288 67.0101 6.87632 68.7529 6.87632C76.0558 6.87632 82.5116 10.5031 86.4174 16.0539C87.7481 15.7973 89.1224 15.6629 90.528 15.6629C102.449 15.6629 112.112 25.3265 112.112 37.2472C112.112 49.1679 102.449 58.8315 90.528 58.8315Z" fill="#DDDDDD"/>
</g>
<path d="M32.5341 31.0909V42.7955C32.5341 43.9034 32.0795 44.5284 31.0568 44.5284H30.7443V46.0909H31.0852C33.1875 46.0909 34.2102 44.8125 34.2102 42.7955V31.0909H32.5341ZM33.358 29.2727C34.0114 29.2727 34.5511 28.7614 34.5511 28.1364C34.5511 27.5114 34.0114 27 33.358 27C32.7045 27 32.1648 27.5114 32.1648 28.1364C32.1648 28.7614 32.7045 29.2727 33.358 29.2727ZM42.712 42.2273C45.6665 42.2273 47.6552 39.983 47.6552 36.6023C47.6552 33.1932 45.6665 30.9489 42.712 30.9489C39.7575 30.9489 37.7688 33.1932 37.7688 36.6023C37.7688 39.983 39.7575 42.2273 42.712 42.2273ZM42.712 40.7216C40.4677 40.7216 39.445 38.7898 39.445 36.6023C39.445 34.4148 40.4677 32.4545 42.712 32.4545C44.9563 32.4545 45.979 34.4148 45.979 36.6023C45.979 38.7898 44.9563 40.7216 42.712 40.7216ZM58.0888 37.5398C58.0888 39.5852 56.5263 40.5227 55.2763 40.5227C53.8842 40.5227 52.8899 39.5 52.8899 37.9091V31.0909H51.2138V38.0227C51.2138 40.8068 52.6911 42.142 54.7365 42.142C56.3842 42.142 57.4638 41.2614 57.9751 40.1534H58.0888V42H59.7649V31.0909H58.0888V37.5398ZM70.0849 34.983H63.7212V36.5455H70.0849V34.983ZM78.6861 42.1989C81.5057 42.1989 83.6009 40.4304 83.6009 38.0511C83.6009 36.2045 82.5071 34.8622 80.6747 34.5568V34.4432C82.1449 33.9957 83.0611 32.7884 83.0611 31.1477C83.0611 29.0881 81.4347 27.2557 78.7429 27.2557C76.2287 27.2557 74.1406 28.804 74.0554 31.0909H75.7599C75.8239 29.642 77.2017 28.7898 78.7145 28.7898C80.3196 28.7898 81.3565 29.7628 81.3565 31.233C81.3565 32.767 80.1562 33.7614 78.4304 33.7614H77.2656V35.3239H78.4304C80.6392 35.3239 81.8679 36.446 81.8679 38.0511C81.8679 39.5923 80.5256 40.6364 78.6577 40.6364C76.9744 40.6364 75.6392 39.7699 75.5327 38.3636H73.7429C73.8494 40.6506 75.8665 42.1989 78.6861 42.1989Z" fill="black"/>
<defs>
<filter id="filter0_di" x="0" y="0" width="116.112" height="76" filterUnits="userSpaceOnUse" color-interpolation-filters="sRGB">
<feFlood flood-opacity="0" result="BackgroundImageFix"/>
<feColorMatrix in="SourceAlpha" type="matrix" values="0 0 0 0 0 0 0 0 0 0 0 0 0 0 0 0 0 0 127 0"/>
<feOffset dy="4"/>
<feGaussianBlur stdDeviation="2"/>
<feColorMatrix type="matrix" values="0 0 0 0 0 0 0 0 0 0 0 0 0 0 0 0 0 0 0.25 0"/>
<feBlend mode="normal" in2="BackgroundImageFix" result="effect1_dropShadow"/>
<feBlend mode="normal" in="SourceGraphic" in2="effect1_dropShadow" result="shape"/>
<feColorMatrix in="SourceAlpha" type="matrix" values="0 0 0 0 0 0 0 0 0 0 0 0 0 0 0 0 0 0 127 0" result="hardAlpha"/>
<feOffset/>
<feGaussianBlur stdDeviation="10"/>
<feComposite in2="hardAlpha" operator="arithmetic" k2="-1" k3="1"/>
<feColorMatrix type="matrix" values="0 0 0 0 1 0 0 0 0 0.866667 0 0 0 0 0.972549 0 0 0 0.5 0"/>
<feBlend mode="normal" in2="shape" result="effect2_innerShadow"/>
</filter>
</defs>
</svg>
