<svg width="32" height="32" viewBox="0 0 32 32" fill="none" xmlns="http://www.w3.org/2000/svg">
<path d="M14.4186 4.16284H3.98191C3.19106 4.16284 2.4326 4.47701 1.87338 5.03622C1.31416 5.59544 1 6.3539 1 7.14475V28.0181C1 28.809 1.31416 29.5674 1.87338 30.1267C2.4326 30.6859 3.19106 31 3.98191 31H24.8553C25.6461 31 26.4046 30.6859 26.9638 30.1267C27.523 29.5674 27.8372 28.809 27.8372 28.0181V17.5814" stroke="#C8A6B8" stroke-width="2" stroke-linecap="round" stroke-linejoin="round"/>
<path d="M25.6008 1.92636C26.1939 1.33322 26.9984 1 27.8372 1C28.676 1 29.4805 1.33322 30.0736 1.92636C30.6668 2.5195 31 3.32397 31 4.16279C31 5.00162 30.6668 5.80609 30.0736 6.39923L15.9096 20.5633L9.94574 22.0543L11.4367 16.0904L25.6008 1.92636Z" stroke="#C8A6B8" stroke-width="2" stroke-linecap="round" stroke-linejoin="round"/>
</svg>
