<svg width="32" height="30" viewBox="0 0 32 30" fill="none" xmlns="http://www.w3.org/2000/svg">
<path d="M1 1H10C11.5913 1 13.1174 1.65555 14.2426 2.82245C15.3679 3.98934 16 5.57199 16 7.22222V29C16 27.7623 15.5259 26.5753 14.682 25.7002C13.8381 24.825 12.6935 24.3333 11.5 24.3333H1V1Z" stroke="#C8A6B8" stroke-width="2" stroke-linecap="round" stroke-linejoin="round"/>
<path d="M31 1H22C20.4087 1 18.8826 1.65555 17.7574 2.82245C16.6321 3.98934 16 5.57199 16 7.22222V29C16 27.7623 16.4741 26.5753 17.318 25.7002C18.1619 24.825 19.3065 24.3333 20.5 24.3333H31V1Z" stroke="#C8A6B8" stroke-width="2" stroke-linecap="round" stroke-linejoin="round"/>
</svg>
